<mxfile host="app.diagrams.net" modified="2023-12-05T12:24:21.193Z" agent="Mozilla/5.0 (Windows NT 10.0; Win64; x64) AppleWebKit/537.36 (KHTML, like Gecko) Chrome/119.0.0.0 Safari/537.36" version="22.1.5" etag="_2oHut8FrpbjRGPQpHib" type="github">
  <diagram name="PÃ¡gina-1" id="drYW_3_aDwHVl11ylqww">
    <mxGraphModel>
      <root>
        <mxCell id="0" />
        <mxCell id="1" parent="0" />
      </root>
    </mxGraphModel>
  </diagram>
</mxfile>
